<svg xmlns="http://www.w3.org/2000/svg" viewBox="0 0 1200 900" fill="none">
  <defs>
    <linearGradient id="bg" x1="80" y1="70" x2="1120" y2="830" gradientUnits="userSpaceOnUse">
      <stop stop-color="#1C1120"/>
      <stop offset=".55" stop-color="#5E2459"/>
      <stop offset="1" stop-color="#FF8847"/>
    </linearGradient>
  </defs>
  <rect width="1200" height="900" fill="url(#bg)"/>
  <circle cx="930" cy="200" r="180" fill="#FFD27A" fill-opacity=".2"/>
  <path d="M0 700C170 610 320 580 514 580C690 580 814 646 972 646C1088 646 1148 624 1200 596V900H0V700Z" fill="#24120D"/>
  <path d="M280 170H510L450 338H340L280 170Z" fill="#FFE6A9"/>
  <path d="M318 170H472L430 310H360L318 170Z" fill="#62D2C7"/>
  <rect x="386" y="338" width="18" height="180" rx="9" fill="#F7E7C0"/>
  <rect x="335" y="518" width="120" height="18" rx="9" fill="#F7E7C0"/>
  <path d="M700 250C700 218 726 192 758 192H914C946 192 972 218 972 250V292C972 320 952 344 924 350L894 620H778L748 350C720 344 700 320 700 292V250Z" fill="#FDE4A6"/>
  <path d="M726 250C726 232 740 218 758 218H914C932 218 946 232 946 250V292C946 308 934 322 918 324L892 594H780L754 324C738 322 726 308 726 292V250Z" fill="#FF6A5D"/>
  <path d="M330 148L392 226" stroke="#FFDA8B" stroke-linecap="round" stroke-width="18"/>
  <path d="M842 126L780 226" stroke="#8BF4E7" stroke-linecap="round" stroke-width="18"/>
  <circle cx="392" cy="226" r="18" fill="#FF6A5D"/>
  <circle cx="780" cy="226" r="18" fill="#FFD76A"/>
  <circle cx="852" cy="170" r="28" fill="#2FAA63"/>
  <circle cx="822" cy="146" r="22" fill="#2FAA63"/>
</svg>
